<svg width="18" height="18" viewBox="0 0 18 18" fill="none" xmlns="http://www.w3.org/2000/svg">
	<path fill="" clip-rule="evenodd" d="M9 0C9.47739 0 9.93523 0.189643 10.2728 0.527208C10.6104 0.864774 10.8 1.32261 10.8 1.8V7.2H16.2C16.6774 7.2 17.1352 7.38964 17.4728 7.72721C17.8104 8.06477 18 8.52261 18 9C18 9.47739 17.8104 9.93523 17.4728 10.2728C17.1352 10.6104 16.6774 10.8 16.2 10.8H10.8V16.2C10.8 16.6774 10.6104 17.1352 10.2728 17.4728C9.93523 17.8104 9.47739 18 9 18C8.52261 18 8.06477 17.8104 7.72721 17.4728C7.38964 17.1352 7.2 16.6774 7.2 16.2V10.8H1.8C1.32261 10.8 0.864774 10.6104 0.527208 10.2728C0.189643 9.93523 0 9.47739 0 9C0 8.52261 0.189643 8.06477 0.527208 7.72721C0.864774 7.38964 1.32261 7.2 1.8 7.2H7.2V1.8C7.2 1.32261 7.38964 0.864774 7.72721 0.527208C8.06477 0.189643 8.52261 0 9 0Z" />
</svg>
