<svg width="40" height="40" viewBox="0 0 40 40" fill="none" xmlns="http://www.w3.org/2000/svg">
	<path d="M38.7676 21.9232C39.0272 21.5114 39.2454 21.0743 39.4191 20.6186C39.573 20.1993 39.7006 19.7705 39.8008 19.3349C39.8838 18.9406 39.9377 18.6008 39.9709 18.3617C39.9864 18.2687 39.9961 18.1748 40 18.0806V17.9799C39.949 18.0218 39.9006 18.0666 39.8548 18.1142C39.7676 18.2064 39.6307 18.3491 39.4689 18.5337C39.307 18.7182 39.1162 18.9532 38.9129 19.2678C38.7095 19.5824 38.4647 19.9096 38.2324 20.3165C37.5685 21.4156 36.9876 22.628 36.6058 23.2782C36.7925 22.7161 36.9253 22.1372 37.0747 21.5625C37.2241 20.9878 37.3237 20.4004 37.3983 19.8131C38.2017 19.3003 38.8089 18.5267 39.1203 17.6191C39.2033 17.3968 39.278 17.1661 39.3402 16.9354C39.4025 16.7046 39.4398 16.4697 39.4772 16.2348C39.5145 15.9999 39.5519 15.7733 39.5684 15.5552C39.585 15.337 39.5933 15.1357 39.5975 14.9217C39.6157 14.599 39.6157 14.2754 39.5975 13.9527L39.5643 13.5751C39.4333 13.774 39.3208 13.9846 39.2282 14.2044C39.1328 14.4141 39.0041 14.6826 38.8797 15.0056C38.7552 15.3287 38.6265 15.7104 38.4647 16.1467C38.3651 16.4445 38.2863 16.7466 38.1867 17.0486C38.0871 17.3507 38 17.6443 37.9212 17.9254C37.751 18.4875 37.5975 18.9867 37.5062 19.3391C37.5726 18.7182 37.6515 18.0806 37.6763 17.4681C37.9846 16.2164 38.0606 14.9178 37.9004 13.6381L37.8506 13.2186L37.7718 12.7991C37.722 12.5306 37.6639 12.2705 37.61 12.0272C37.4813 11.5406 37.3485 11.1085 37.2324 10.7477C36.971 10.0303 36.7884 9.60245 36.7884 9.60245C36.7884 9.60245 36.8299 10.0723 36.9212 10.8148C36.9544 11.1924 36.9917 11.6328 37.0415 12.1237C37.0415 12.367 37.0747 12.6271 37.0954 12.8913L37.1328 13.3109L37.1577 13.7304C37.1867 14.1499 37.2365 14.5442 37.2573 14.9259C37.278 15.3077 37.3361 15.6559 37.3568 15.9831C37.3776 16.3103 37.4232 16.5998 37.4564 16.8515C37.4896 17.1032 37.5062 17.3171 37.527 17.4765C37.5021 18.1016 37.4191 18.735 37.3444 19.3349C37.3296 18.8507 37.2894 18.3676 37.2241 17.8876C37.1784 17.6024 37.1245 17.3087 37.0622 17.0193C36.9949 16.7268 36.9118 16.4383 36.8133 16.1551C36.6941 15.7891 36.5384 15.4363 36.3486 15.1021C36.23 14.8665 36.0912 14.6419 35.9336 14.4309C35.8126 14.257 35.6735 14.0967 35.5187 13.9527L35.5477 14.2715C35.5768 14.4729 35.6017 14.7539 35.639 15.1105C35.639 15.2741 35.6805 15.4545 35.7137 15.6391C35.7469 15.8237 35.7635 16.0208 35.7967 16.218C35.8299 16.4152 35.8755 16.6375 35.9212 16.8263C35.9668 17.0151 36.0083 17.2458 36.0664 17.4388C36.297 18.3103 36.7102 19.1215 37.278 19.8173C37.195 20.4046 37.0581 20.9794 36.9419 21.5541C36.8257 22.1288 36.6556 22.6993 36.4647 23.2573C36.5998 22.1752 36.5563 21.078 36.3361 20.0103C36.2427 19.6214 36.1135 19.2422 35.9502 18.8777C35.8295 18.6232 35.6909 18.3778 35.5353 18.1435C35.422 17.9449 35.2824 17.7628 35.1203 17.6024V17.6863C35.1203 17.7408 35.1203 17.8163 35.1203 17.917C35.1203 18.1142 35.0955 18.391 35.1203 18.7224C35.1452 19.0538 35.1203 19.4314 35.1452 19.8341C35.1618 20.2565 35.209 20.6772 35.2863 21.0926C35.4396 22.0299 35.7967 22.9211 36.332 23.7019C35.9516 24.8169 35.4969 25.9045 34.971 26.9573C35.254 25.8917 35.344 24.7831 35.2365 23.6852C35.1892 23.2894 35.1002 22.8998 34.971 22.5231C34.8817 22.2429 34.7635 21.9729 34.6183 21.7177C34.5039 21.4954 34.3647 21.2871 34.2033 21.0968C34.2033 21.0968 34.1784 21.2059 34.1453 21.3989C34.1121 21.5918 34.0747 21.8645 34.0208 22.1833C33.9066 22.965 33.8718 23.7563 33.917 24.5451C33.9953 25.5412 34.2779 26.5098 34.7469 27.3894C34.4813 27.9137 34.1743 28.4129 33.8714 28.9164C33.5685 29.4198 33.1951 29.9064 32.8299 30.372C33.268 29.3464 33.498 28.2422 33.5063 27.1251C33.4958 26.4028 33.3434 25.6898 33.0581 25.0276C32.981 24.8394 32.888 24.6584 32.7801 24.4864C32.7419 24.4227 32.7003 24.3611 32.6556 24.3018C32.6556 24.3018 32.6141 24.4067 32.5602 24.5913C32.5063 24.7759 32.415 25.0108 32.3361 25.3422C32.114 26.1052 31.9844 26.8926 31.9502 27.6872C31.9294 28.7429 32.1258 29.7915 32.527 30.7664C31.8136 31.6938 31.0386 32.5712 30.2075 33.3924C30.7892 32.4199 31.1585 31.3329 31.2905 30.2042C31.3637 29.4461 31.276 28.681 31.0332 27.9599C30.9462 27.6668 30.825 27.3851 30.6722 27.1209C30.6722 27.1209 30.6183 27.2174 30.5353 27.3852C30.4523 27.553 30.3527 27.8047 30.2241 28.0941C29.918 28.8287 29.7061 29.5999 29.5934 30.3888C29.5098 31.0686 29.5098 31.7562 29.5934 32.436C29.6474 32.8608 29.7306 33.2813 29.8424 33.6945C28.9886 34.4948 28.0759 35.2282 27.1121 35.8885C27.4285 35.4972 27.7064 35.0757 27.942 34.63C28.0886 34.3585 28.2189 34.0783 28.332 33.791C28.3901 33.64 28.444 33.4889 28.4938 33.3337C28.5436 33.1785 28.5768 33.0107 28.61 32.8471C28.7757 32.0673 28.7757 31.2609 28.61 30.4811C28.5419 30.1634 28.4403 29.854 28.3071 29.5582C28.3071 29.5582 28.2449 29.6421 28.1453 29.7973C28.0457 29.9525 27.8963 30.1665 27.7304 30.4475C27.3356 31.1616 27.0383 31.9265 26.8466 32.7212C26.7612 33.0873 26.7002 33.4587 26.664 33.8329C26.6266 34.1895 26.6225 34.5461 26.6183 34.8523C26.6178 35.31 26.6511 35.7672 26.7179 36.2199C25.7389 36.8574 24.7139 37.4197 23.6516 37.9021C24.5056 37.1129 25.1589 36.1272 25.5561 35.0285C25.6981 34.5874 25.79 34.1314 25.83 33.6693C25.8574 33.2975 25.8504 32.9239 25.8092 32.5534C25.7775 32.2063 25.7108 31.8633 25.61 31.5299C25.3667 31.7759 25.1445 32.0425 24.9462 32.3269C24.7272 32.6171 24.5289 32.9227 24.3528 33.2414C24.1297 33.6279 23.9409 34.0336 23.7885 34.4538C23.6547 34.8229 23.5479 35.2015 23.469 35.5864C23.3901 35.9514 23.3321 36.308 23.2906 36.6394C23.2338 37.1253 23.2061 37.6142 23.2076 38.1035C22.1801 38.5525 21.1237 38.9309 20.0458 39.2361C20.0034 39.2506 19.968 39.2806 19.9465 39.3202C19.9249 39.3598 19.9189 39.4062 19.9296 39.4501C19.9353 39.4717 19.9453 39.492 19.9589 39.5097C19.9725 39.5273 19.9895 39.5421 20.0088 39.553C20.0282 39.564 20.0495 39.5709 20.0715 39.5734C20.0935 39.5759 20.1158 39.5739 20.1371 39.5675C21.228 39.2496 22.2967 38.8586 23.3362 38.3971C24.2909 39.319 25.5305 39.8804 26.8466 39.987C27.4023 40.0227 27.9603 39.9847 28.5063 39.8738C28.9845 39.7736 29.4536 39.6333 29.9088 39.4543C30.2368 39.3145 30.5568 39.1562 30.8673 38.9802C31.0955 38.8502 31.2241 38.7663 31.2241 38.7663C30.8743 38.619 30.5136 38.4997 30.1453 38.4097C29.805 38.3216 29.4108 38.2419 28.9503 38.1664C28.4495 38.0808 27.9434 38.0303 27.4358 38.0154C26.2185 37.9788 25.0002 38.0405 23.7926 38.1999C24.8614 37.6985 25.8907 37.1151 26.8714 36.4548C27.2613 36.6976 27.6794 36.8907 28.1163 37.0295C28.456 37.1402 28.8066 37.2133 29.1619 37.2477C29.5753 37.2985 29.9933 37.2985 30.4067 37.2477C31.4143 37.0848 32.3745 36.7011 33.2199 36.1234C33.5093 35.9314 33.7864 35.7212 34.0498 35.4942C34.2448 35.3264 34.3527 35.2173 34.3527 35.2173C34.3527 35.2173 34.2531 35.2173 34.0747 35.1711C33.8963 35.125 33.6598 35.125 33.3112 35.1124C32.4377 35.0767 31.5629 35.1344 30.7013 35.2844C30.527 35.3152 30.3528 35.3487 30.1785 35.3851L29.664 35.4942C29.3279 35.5697 29.0167 35.6661 28.7138 35.7417C28.1038 35.9011 27.6059 36.0815 27.2366 36.1905C28.2072 35.5155 29.1255 34.7666 29.9835 33.9504C30.3845 34.0979 30.803 34.191 31.2283 34.2273C31.9715 34.2976 32.7209 34.2017 33.4233 33.9462C34.3579 33.5902 35.2067 33.0367 35.9129 32.3227C36.1584 32.0821 36.3898 31.8272 36.6058 31.5592C36.7635 31.3621 36.8506 31.2404 36.8506 31.2404C36.5246 31.2472 36.1998 31.2823 35.8797 31.3453C35.0637 31.4996 34.2646 31.7342 33.4938 32.0458C32.412 32.5002 31.3588 33.0214 30.3403 33.6064C31.1799 32.7723 31.9618 31.8808 32.6805 30.9384C33.8124 31.0839 34.9589 30.8241 35.9212 30.2042C36.7401 29.6693 37.4454 28.9748 37.9958 28.1612C38.2282 27.8173 38.4108 27.511 38.5311 27.2929C38.6514 27.0747 38.7054 26.9405 38.7054 26.9405C38.7054 26.9405 38.6224 26.9405 38.4772 27.0034C38.3319 27.0663 38.1245 27.1293 37.8548 27.2383C37.1291 27.5532 36.4345 27.9367 35.7801 28.3836C34.6598 29.1429 33.6307 30.0406 33.0457 30.5189C33.4025 30.0448 33.7179 29.5414 34.0415 29.0422C34.3652 28.543 34.6473 28.027 34.917 27.4984C35.9744 27.3963 36.9634 26.9245 37.7137 26.1644C38.3817 25.4838 38.9154 24.6809 39.2863 23.7984C39.423 23.4929 39.5408 23.1791 39.639 22.8587C39.7137 22.6238 39.751 22.4854 39.751 22.4854C39.4887 22.6093 39.2386 22.7582 39.0041 22.93C38.7925 23.0895 38.5436 23.295 38.249 23.5425C37.9544 23.79 37.6805 24.1005 37.3444 24.4445C36.4606 25.4093 35.5809 26.4665 35.1328 27.0538C35.6523 25.9881 36.1028 24.8895 36.4813 23.7649C37.4258 23.4269 38.2308 22.7784 38.7676 21.9232Z" fill="#FF9F43" />
	<path d="M1.2448 21.9231C0.986734 21.5104 0.768578 21.0735 0.593356 20.6185C0.436079 20.1999 0.307152 19.771 0.207467 19.3348C0.12448 18.9405 0.0705389 18.6007 0.0373441 18.3616C0.0191447 18.2687 0.00667256 18.1749 0 18.0805L0 17.9798C0.0509364 18.0217 0.0994269 18.0665 0.145227 18.114C0.232363 18.2063 0.369292 18.349 0.531116 18.5335C0.692941 18.7181 0.883811 18.9531 1.08713 19.2677C1.29045 19.5823 1.53526 19.9095 1.76762 20.3164C2.43152 21.4155 3.01243 22.6279 3.39417 23.2781C3.20744 22.716 3.07467 22.1371 2.92529 21.5624C2.77591 20.9876 2.67633 20.4003 2.59749 19.813C1.80141 19.2961 1.20068 18.5233 0.89211 17.619C0.809123 17.3967 0.734434 17.166 0.672194 16.9352C0.609954 16.7045 0.57261 16.4696 0.531116 16.2347C0.489623 15.9998 0.460577 15.7732 0.44398 15.5551C0.427383 15.3369 0.414935 15.102 0.414935 14.909C0.396759 14.5863 0.396759 14.2628 0.414935 13.94L0.448129 13.5624C0.579122 13.7613 0.691634 13.9719 0.784226 14.1917C0.875512 14.4014 1.00829 14.6699 1.13277 14.9929C1.25725 15.316 1.38588 15.6977 1.54771 16.134C1.64729 16.4318 1.72613 16.7339 1.82571 17.0359C1.9253 17.338 2.01243 17.6316 2.09127 17.9127C2.26139 18.4748 2.41077 18.974 2.50621 19.3264C2.43567 18.7055 2.36098 18.0679 2.33608 17.4554C2.02784 16.2037 1.95187 14.9051 2.11202 13.6254L2.16181 13.2059C2.19085 13.0674 2.21575 12.929 2.24065 12.7864C2.29044 12.5179 2.34853 12.2578 2.40247 12.0145C2.5311 11.5279 2.66388 11.0958 2.78006 10.735C3.04147 10.0176 3.22404 9.58975 3.22404 9.58975C3.22404 9.58975 3.18255 10.0596 3.08711 10.8021C3.05807 11.1797 3.02072 11.6201 2.97093 12.111C2.97093 12.3543 2.93774 12.6144 2.91699 12.8787L2.87965 13.2982L2.85475 13.7177C2.8257 14.1372 2.77591 14.5315 2.75517 14.9132C2.73442 15.295 2.69293 15.6264 2.67218 15.941C2.65143 16.2557 2.60579 16.5703 2.57259 16.822C2.5394 17.0737 2.5228 17.2876 2.48961 17.447C2.5145 18.0721 2.59749 18.7055 2.66803 19.3054C2.68452 18.8211 2.72607 18.3381 2.79251 17.8582C2.83815 17.5729 2.89209 17.2792 2.95433 16.9898C3.02164 16.6973 3.10476 16.4088 3.2033 16.1256C3.32298 15.7699 3.47726 15.427 3.66387 15.102C3.78242 14.8664 3.92127 14.6418 4.07881 14.4308C4.20636 14.2558 4.35246 14.0955 4.51449 13.9526C4.51449 13.9526 4.51449 14.07 4.48544 14.2714C4.4564 14.4728 4.4315 14.7538 4.39416 15.1104C4.39416 15.274 4.35266 15.4544 4.31947 15.639C4.28627 15.8236 4.26968 16.0207 4.23648 16.2179C4.20329 16.4151 4.15764 16.6374 4.112 16.8262C4.0725 17.0328 4.02264 17.2372 3.96263 17.4386C3.73428 18.3102 3.3224 19.1215 2.75517 19.8172C2.83815 20.4045 2.97508 20.9793 3.09126 21.554C3.20744 22.1287 3.37757 22.6992 3.56429 23.2571C3.43089 22.1748 3.47576 21.0777 3.69707 20.0102C3.78376 19.622 3.906 19.2428 4.06221 18.8775C4.1829 18.6231 4.32157 18.3777 4.47714 18.1434C4.59043 17.9448 4.73003 17.7627 4.89208 17.6023V17.6862C4.89208 17.7407 4.89208 17.8162 4.89208 17.9169C4.89208 18.114 4.91698 18.3909 4.91283 18.7223C4.90868 19.0537 4.91283 19.4313 4.88793 19.834C4.87136 20.2564 4.8242 20.6771 4.74685 21.0925C4.60363 22.0271 4.25791 22.9181 3.73441 23.7018C4.11478 24.8168 4.56949 25.9044 5.0954 26.9572C4.81237 25.8916 4.7224 24.783 4.82984 23.685C4.87716 23.2892 4.96619 22.8997 5.0954 22.523C5.18468 22.2428 5.3029 21.9728 5.44809 21.7176C5.56246 21.4953 5.70168 21.2869 5.86303 21.0967C5.86303 21.0967 5.88792 21.2058 5.92112 21.3988C5.95431 21.5917 5.99166 21.8644 6.0456 22.1832C6.15976 22.9649 6.19452 23.7562 6.14933 24.545C6.07107 25.5411 5.78844 26.5097 5.31946 27.3893C5.58502 27.9136 5.89207 28.4128 6.19497 28.9162C6.49788 29.4196 6.83397 29.9063 7.19082 30.3719C6.75274 29.3463 6.52275 28.2421 6.51447 27.125C6.52497 26.4027 6.6773 25.6897 6.9626 25.0275C7.04115 24.8411 7.13701 24.6627 7.24891 24.4947C7.28713 24.431 7.32868 24.3694 7.37339 24.3101C7.37339 24.3101 7.41488 24.415 7.46882 24.5996C7.52277 24.7841 7.61405 25.0191 7.69289 25.3505C7.90452 26.112 8.02433 26.8965 8.04973 27.6871C8.06931 28.7431 7.87149 29.7917 7.46882 30.7662C8.18625 31.6941 8.96537 32.5715 9.80076 33.3923C9.21761 32.4202 8.84694 31.3331 8.71363 30.2041C8.64214 29.4463 8.72836 28.6818 8.96674 27.9598C9.05616 27.6669 9.17869 27.3853 9.33188 27.1208C9.33188 27.1208 9.38582 27.2173 9.46881 27.3851C9.5518 27.5529 9.65138 27.8046 9.78001 28.094C10.0861 28.8286 10.298 29.5998 10.4107 30.3887C10.4943 31.0685 10.4943 31.7561 10.4107 32.4359C10.3567 32.8607 10.2735 33.2812 10.1617 33.6944C11.0155 34.4947 11.9282 35.2281 12.892 35.8884C12.577 35.4961 12.2991 35.0747 12.0622 34.6299C11.9185 34.3575 11.7897 34.0774 11.6763 33.7909C11.6182 33.6398 11.5642 33.4888 11.5144 33.3336C11.4646 33.1784 11.4314 33.0106 11.3983 32.847C11.2326 32.0672 11.2326 31.2608 11.3983 30.481C11.464 30.1627 11.5657 29.853 11.7012 29.5581C11.7012 29.5581 11.7634 29.642 11.863 29.7972C11.9626 29.9524 12.1119 30.1664 12.2779 30.4474C12.6741 31.1613 12.9728 31.9262 13.1659 32.7211C13.2512 33.0871 13.3122 33.4585 13.3484 33.8328C13.3858 34.1894 13.3899 34.546 13.3941 34.8522C13.3881 35.3033 13.3492 35.7534 13.2779 36.1988C14.2523 36.843 15.2731 37.4123 16.3318 37.902C15.4764 37.1131 14.8217 36.1274 14.4231 35.0284C14.2843 34.5867 14.1939 34.1309 14.1534 33.6692C14.126 33.2974 14.1329 32.9238 14.1742 32.5533C14.2058 32.2062 14.2726 31.8632 14.3733 31.5297C14.6167 31.7758 14.8388 32.0424 15.0372 32.3268C15.2562 32.617 15.4545 32.9226 15.6306 33.2413C15.8539 33.6271 16.0414 34.0329 16.1908 34.4537C16.3283 34.8216 16.4352 35.2004 16.5103 35.5863C16.5932 35.9513 16.6513 36.3079 16.6928 36.6393C16.7509 37.125 16.7773 37.6141 16.7717 38.1034C17.8008 38.5518 18.8585 38.9302 19.9376 39.236C19.9794 39.2513 20.0143 39.2814 20.0357 39.3208C20.0571 39.3602 20.0635 39.4061 20.0538 39.45C20.0476 39.4718 20.0372 39.4921 20.0232 39.5098C20.0092 39.5275 19.9918 39.5423 19.9722 39.5532C19.9525 39.5641 19.9309 39.571 19.9086 39.5734C19.8863 39.5759 19.8637 39.5738 19.8422 39.5674C18.7529 39.2488 17.6855 38.8578 16.6472 38.397C16.2867 38.7344 15.8868 39.026 15.4563 39.2654C14.7468 39.6795 13.9539 39.9262 13.1368 39.9869C12.5811 40.0226 12.0231 39.9846 11.4771 39.8737C10.9989 39.7735 10.5298 39.6332 10.0746 39.4542C9.75016 39.3107 9.43427 39.1482 9.12856 38.9675C8.90035 38.8375 8.77172 38.7536 8.77172 38.7536C9.12151 38.6063 9.48223 38.487 9.85055 38.397C10.1908 38.3089 10.585 38.2292 11.0456 38.1537C11.5463 38.0679 12.0524 38.0174 12.5601 38.0027C13.7774 37.9661 14.9956 38.0278 16.2032 38.1873C15.1344 37.6858 14.1051 37.1024 13.1244 36.4421C12.7341 36.6841 12.3161 36.8771 11.8796 37.0168C11.5398 37.1275 11.1893 37.2006 10.8339 37.235C10.4205 37.2858 10.0026 37.2858 9.58914 37.235C8.58151 37.0721 7.62131 36.6884 6.77588 36.1107C6.48655 35.9187 6.20939 35.7085 5.94601 35.4815C5.75099 35.3137 5.64311 35.2046 5.64311 35.2046C5.64311 35.2046 5.7427 35.2046 5.92112 35.1584C6.09954 35.1123 6.3568 35.1123 6.6846 35.0997C7.55814 35.0642 8.43294 35.1219 9.29454 35.2717C9.46881 35.3011 9.64308 35.3346 9.8132 35.3724L10.3319 35.4815C10.668 35.557 10.9792 35.6535 11.2821 35.729C11.892 35.8884 12.3899 36.0688 12.7551 36.1778C11.786 35.5007 10.8679 34.752 10.0082 33.9377C9.6075 34.0862 9.18879 34.1793 8.76342 34.2146C8.02021 34.285 7.27079 34.189 6.56842 33.9335C5.63377 33.5775 4.78501 33.024 4.07881 32.31C3.83216 32.0705 3.60072 31.8155 3.38587 31.5465C3.22819 31.3494 3.14106 31.2277 3.14106 31.2277C3.46708 31.2345 3.79192 31.2696 4.112 31.3326C4.92799 31.4869 5.72709 31.7215 6.49788 32.0331C7.57968 32.4875 8.63283 33.0087 9.65138 33.5937C8.81177 32.7596 8.02985 31.8682 7.31115 30.9257C6.18757 31.0699 5.04933 30.8148 4.09126 30.2041C3.27984 29.667 2.58175 28.9726 2.03733 28.1611C1.80497 27.8171 1.62239 27.5109 1.50206 27.2928C1.38173 27.0746 1.32779 26.9404 1.32779 26.9404C1.32779 26.9404 1.41078 26.9404 1.556 27.0033C1.70123 27.0662 1.9087 27.1292 2.17841 27.2382C2.90453 27.5522 3.59926 27.9357 4.25308 28.3835C5.37755 29.1428 6.40659 30.0405 6.99165 30.5187C6.63481 30.0447 6.31945 29.5413 5.99581 29.0421C5.67216 28.5429 5.39415 28.0227 5.12029 27.4941C4.06294 27.392 3.07392 26.9202 2.32363 26.1601C1.65561 25.4795 1.1219 24.6766 0.751032 23.7941C0.61993 23.4882 0.507683 23.1744 0.414935 22.8544C0.340246 22.6195 0.302902 22.4811 0.302902 22.4811C0.551081 22.6086 0.787194 22.7589 1.00829 22.9299C1.21991 23.0893 1.46887 23.2949 1.75932 23.5424C2.04978 23.7899 2.34438 24.1004 2.69293 24.4443C3.57674 25.4092 4.45225 26.4663 4.90453 27.0536C4.38328 25.9888 3.93277 24.8901 3.55599 23.7647C2.60314 23.4302 1.78916 22.7816 1.2448 21.9231Z" fill="#FF9F43" />
	<path d="M20.0039 33.4008L19.7923 33.3169C12.1741 30.4097 8.07451 25.7952 7.26124 19.2006L5.6015 5.67587L20.0039 0L34.4395 5.67587L32.7797 19.2006C31.9498 25.7952 27.8669 30.4097 20.2487 33.3169L20.0039 33.4008ZM6.8961 6.46873L8.4521 19.0538C9.21143 25.1702 12.8836 29.3274 20.0039 32.1003C27.1283 29.3274 30.7922 25.1785 31.5557 19.0496L33.1117 6.46454L20.0039 1.30465L6.8961 6.46873Z" fill="#5F27CD" />
	<path d="M20.0042 30.3468L19.8921 30.3006C13.8299 27.7836 10.7055 24.134 10.0499 18.8482L8.65155 7.52164L20.0042 3.04974L31.3609 7.52164L29.9584 18.8482C29.307 24.134 26.1825 27.771 20.1203 30.3006L20.0042 30.3468ZM9.30715 7.92017L10.6474 18.7727C11.2698 23.8067 14.2449 27.2551 20.0042 29.6798C25.7676 27.2676 28.7427 23.7858 29.3651 18.7727L30.7053 7.92017L20.0042 3.72514L9.30715 7.92017Z" fill="#FF9F43" />
	<path d="M15.9996 21.9651C15.0397 21.1848 14.5612 19.9263 14.5639 18.1895V12.4885H13.7341V9.7114H19.9166V12.4885H19.261V19.0327C19.2315 19.3333 19.3177 19.6338 19.5017 19.8718C19.7074 20.0429 19.9655 20.1365 20.2319 20.1365C20.4984 20.1365 20.7565 20.0429 20.9622 19.8718C21.1462 19.6338 21.2323 19.3333 21.2029 19.0327V12.4885H20.5348V9.7114H26.2858V12.4885H25.456V18.1686C25.456 19.9221 24.9912 21.1806 24.0618 21.9441C23.1323 22.7076 21.8032 23.0977 20.0743 23.1145C18.3094 23.1285 16.9512 22.7453 15.9996 21.9651Z" fill="#5F27CD" />
</svg>
